<svg  viewBox="0 0 721 196" fill="none" xmlns="http://www.w3.org/2000/svg">
<g clip-path="url(#clip0_1_45)">
<path d="M713 26H8C3.58172 26 0 29.5817 0 34V188C0 192.418 3.58172 196 8 196H713C717.418 196 721 192.418 721 188V34C721 29.5817 717.418 26 713 26Z" fill="#E8F0FE"/>
</g>
<g clip-path="url(#clip1_1_45)">
<path d="M576.905 54.5839C588.449 54.5839 597.807 45.2212 597.807 33.6718C597.807 22.1224 588.449 12.7598 576.905 12.7598C565.362 12.7598 556.004 22.1224 556.004 33.6718C556.004 45.2212 565.362 54.5839 576.905 54.5839Z" fill="#A0616A"/>
<path d="M561.305 44.1279C561.305 44.1279 565.243 73.8291 559.185 77.1629C553.126 80.4967 595.232 80.7998 595.232 80.7998C595.232 80.7998 585.842 55.0386 590.083 47.1586L561.305 44.1279Z" fill="#A0616A"/>
<path d="M625.979 80.9499L622.477 96.9035L615.072 130.656L614.851 132.505L612.295 153.904L610.596 168.12L609.456 177.67C602.526 181.233 597.504 183.693 597.504 183.693C597.504 183.693 597.072 181.526 596.375 178.753C591.512 180.212 582.513 182.632 574.887 183.116C577.664 186.213 578.94 189.122 577.209 191.269C571.985 197.741 550.417 184.182 542.873 179.126C542.698 180.336 542.631 181.56 542.674 182.783L536.901 178.341L537.473 168.12L538.436 150.827L539.647 129.141C539.265 128.212 538.945 127.259 538.689 126.288C536.921 119.998 534.775 107.437 533.13 96.9035C531.805 88.4262 530.81 81.2627 530.6 79.7384C530.571 79.5394 530.557 79.437 530.557 79.437L562.514 65.3091C564.785 70.5786 575.39 72.1626 575.39 72.1626C584.176 71.5569 591.063 66.9215 591.063 66.9215L625.979 80.9499Z" fill="#D0CDE1"/>
<path d="M599.928 177.634C599.928 177.634 598.575 178.098 596.375 178.755C591.512 180.213 582.513 182.633 574.887 183.117C568.321 183.538 562.772 182.525 561.758 178.24C561.323 176.397 561.94 174.881 563.284 173.636C567.298 169.913 577.78 168.579 586.094 168.122C588.442 167.994 590.614 167.934 592.421 167.911C595.491 167.871 597.503 167.934 597.503 167.934L597.552 168.122L599.928 177.634Z" fill="#A0616A"/>
<path d="M577.209 191.269C571.985 197.742 550.417 184.183 542.873 179.126C541.23 178.026 540.252 177.329 540.252 177.329L547.154 168.121L549.339 165.206C549.339 165.206 551.295 166.244 554.186 167.933C554.291 167.996 554.396 168.058 554.504 168.121C556.997 169.585 560.126 171.499 563.284 173.635C567.641 176.584 572.047 179.948 574.887 183.116C577.664 186.213 578.94 189.122 577.209 191.269Z" fill="#A0616A"/>
<path d="M648.698 154.294C646.569 156.603 641.294 160.081 634.898 163.846C632.519 165.245 629.987 166.687 627.403 168.12C621.238 171.541 614.783 174.931 609.456 177.67C602.526 181.233 597.504 183.693 597.504 183.693C597.504 183.693 597.072 181.526 596.375 178.753C595.443 175.042 594.039 170.245 592.575 168.12C592.524 168.046 592.473 167.978 592.422 167.91C591.995 167.35 591.566 167.022 591.143 167.022L612.296 153.904L621.437 148.234L614.851 132.505L606.591 112.774L611.576 96.9033L616.588 80.9497H625.979C625.979 80.9497 629.088 87.7407 633.065 97.2105C633.659 98.6267 634.273 100.103 634.898 101.627C643.079 121.533 653.277 149.331 648.698 154.294Z" fill="#D0CDE1"/>
<path d="M641.635 187.799V189.525C641.636 189.999 641.548 190.469 641.376 190.91C641.3 191.107 641.207 191.297 641.1 191.479C640.762 192.048 640.281 192.519 639.705 192.846C639.13 193.173 638.479 193.345 637.817 193.344H510.891C510.229 193.345 509.578 193.173 509.003 192.846C508.427 192.519 507.947 192.048 507.608 191.479C507.501 191.297 507.409 191.107 507.332 190.91C507.16 190.469 507.073 189.999 507.074 189.525V187.799C507.074 187.297 507.172 186.801 507.364 186.337C507.556 185.874 507.837 185.453 508.191 185.098C508.546 184.743 508.967 184.462 509.43 184.27C509.893 184.078 510.39 183.98 510.891 183.98H518.207V183.175C518.207 183.154 518.211 183.133 518.219 183.114C518.227 183.095 518.239 183.077 518.254 183.062C518.269 183.047 518.286 183.036 518.305 183.028C518.325 183.02 518.346 183.016 518.366 183.016H522.184C522.205 183.016 522.225 183.02 522.245 183.028C522.264 183.036 522.282 183.047 522.296 183.062C522.311 183.077 522.323 183.095 522.331 183.114C522.339 183.133 522.343 183.154 522.343 183.175V183.98H524.728V183.175C524.728 183.154 524.732 183.133 524.74 183.114C524.748 183.095 524.759 183.077 524.774 183.062C524.789 183.047 524.806 183.036 524.826 183.028C524.845 183.02 524.866 183.016 524.887 183.016H528.704C528.725 183.016 528.746 183.02 528.765 183.028C528.784 183.036 528.802 183.047 528.817 183.062C528.832 183.077 528.843 183.095 528.851 183.114C528.859 183.133 528.863 183.154 528.863 183.175V183.98H531.251V183.175C531.251 183.154 531.255 183.133 531.263 183.114C531.271 183.095 531.283 183.077 531.297 183.062C531.312 183.047 531.33 183.036 531.349 183.028C531.368 183.02 531.389 183.016 531.41 183.016H535.227C535.248 183.016 535.269 183.02 535.288 183.028C535.308 183.036 535.325 183.047 535.34 183.062C535.355 183.077 535.366 183.095 535.374 183.114C535.382 183.133 535.387 183.154 535.386 183.175V183.98H537.771V183.175C537.771 183.154 537.775 183.133 537.783 183.114C537.791 183.095 537.803 183.077 537.818 183.062C537.833 183.047 537.85 183.036 537.869 183.028C537.889 183.02 537.91 183.016 537.93 183.016H541.748C541.769 183.016 541.789 183.02 541.809 183.028C541.828 183.036 541.846 183.047 541.86 183.062C541.875 183.077 541.887 183.095 541.895 183.114C541.903 183.133 541.907 183.154 541.907 183.175V183.98H544.292V183.175C544.292 183.154 544.296 183.133 544.304 183.114C544.312 183.095 544.324 183.077 544.338 183.062C544.353 183.047 544.371 183.036 544.39 183.028C544.409 183.02 544.43 183.016 544.451 183.016H548.268C548.289 183.016 548.31 183.02 548.329 183.028C548.349 183.036 548.366 183.047 548.381 183.062C548.396 183.077 548.407 183.095 548.415 183.114C548.423 183.133 548.427 183.154 548.427 183.175V183.98H550.815V183.175C550.815 183.154 550.819 183.133 550.827 183.114C550.835 183.095 550.847 183.077 550.862 183.062C550.876 183.047 550.894 183.036 550.913 183.028C550.933 183.02 550.953 183.016 550.974 183.016H554.791C554.812 183.016 554.833 183.02 554.852 183.028C554.872 183.036 554.889 183.047 554.904 183.062C554.919 183.077 554.931 183.095 554.939 183.114C554.947 183.133 554.951 183.154 554.951 183.175V183.98H557.335V183.175C557.335 183.154 557.339 183.133 557.347 183.114C557.355 183.095 557.367 183.077 557.382 183.062C557.397 183.047 557.414 183.036 557.434 183.028C557.453 183.02 557.474 183.016 557.495 183.016H587.396C587.417 183.016 587.438 183.02 587.457 183.028C587.477 183.036 587.494 183.047 587.509 183.062C587.524 183.077 587.536 183.095 587.543 183.114C587.551 183.133 587.556 183.154 587.556 183.175V183.98H589.943V183.175C589.943 183.154 589.947 183.133 589.955 183.114C589.963 183.095 589.975 183.077 589.99 183.062C590.004 183.047 590.022 183.036 590.041 183.028C590.061 183.02 590.081 183.016 590.102 183.016H593.92C593.962 183.016 594.002 183.033 594.032 183.063C594.062 183.092 594.078 183.133 594.079 183.175V183.98H596.464V183.175C596.464 183.154 596.468 183.133 596.476 183.114C596.484 183.095 596.495 183.077 596.51 183.062C596.525 183.047 596.542 183.036 596.562 183.028C596.581 183.02 596.602 183.016 596.623 183.016H600.44C600.461 183.016 600.482 183.02 600.501 183.028C600.52 183.036 600.538 183.047 600.553 183.062C600.567 183.077 600.579 183.095 600.587 183.114C600.595 183.133 600.599 183.154 600.599 183.175V183.98H602.984V183.175C602.984 183.154 602.988 183.133 602.996 183.114C603.004 183.095 603.016 183.077 603.031 183.062C603.045 183.047 603.063 183.036 603.082 183.028C603.102 183.02 603.122 183.016 603.143 183.016H606.96C606.981 183.016 607.002 183.02 607.021 183.028C607.041 183.036 607.058 183.047 607.073 183.062C607.088 183.077 607.1 183.095 607.108 183.114C607.116 183.133 607.12 183.154 607.12 183.175V183.98H609.507V183.175C609.507 183.154 609.511 183.133 609.519 183.114C609.527 183.095 609.539 183.077 609.554 183.062C609.569 183.047 609.586 183.036 609.605 183.028C609.625 183.02 609.646 183.016 609.666 183.016H613.484C613.526 183.016 613.565 183.033 613.595 183.063C613.624 183.093 613.64 183.133 613.64 183.175V183.98H616.028V183.175C616.028 183.154 616.032 183.133 616.04 183.114C616.048 183.095 616.059 183.077 616.074 183.062C616.089 183.047 616.107 183.036 616.126 183.028C616.145 183.02 616.166 183.016 616.187 183.016H620.004C620.025 183.016 620.046 183.02 620.065 183.028C620.084 183.036 620.102 183.047 620.117 183.062C620.132 183.077 620.143 183.095 620.151 183.114C620.159 183.133 620.163 183.154 620.163 183.175V183.98H622.548V183.175C622.548 183.154 622.552 183.133 622.56 183.114C622.568 183.095 622.58 183.077 622.595 183.062C622.609 183.047 622.627 183.036 622.646 183.028C622.666 183.02 622.686 183.016 622.707 183.016H626.525C626.545 183.016 626.566 183.02 626.586 183.028C626.605 183.036 626.622 183.047 626.637 183.062C626.652 183.077 626.664 183.095 626.672 183.114C626.68 183.133 626.684 183.154 626.684 183.175V183.98H637.817C638.319 183.98 638.815 184.078 639.278 184.27C639.742 184.462 640.162 184.743 640.517 185.098C640.871 185.453 641.153 185.874 641.344 186.337C641.536 186.801 641.635 187.297 641.635 187.799Z" fill="#3F3D56"/>
<path d="M678.543 190.911H470.197V191.479H678.543V190.911Z" fill="#3F3D56"/>
<path d="M668.01 188.038H660.052V196H668.01V188.038Z" fill="#D0CDE1"/>
<path d="M483.824 188.038H475.866V196H483.824V188.038Z" fill="#D0CDE1"/>
<path d="M663.18 181.781V191.45H672.844V181.781H663.18ZM672.423 191.029H663.597V182.202H672.423V191.029Z" fill="#3F3D56"/>
<path d="M478.993 181.781V191.45H488.658V181.781H478.993ZM488.237 191.029H479.411V182.202H488.237V191.029Z" fill="#3F3D56"/>
<path d="M495.804 170.557C496.069 179.643 490.763 182.972 484.104 183.167C483.949 183.171 483.795 183.174 483.642 183.175C483.333 183.178 483.027 183.172 482.724 183.16C476.702 182.91 471.935 179.711 471.688 171.261C471.433 162.517 482.281 151.155 483.095 150.314H483.097C483.127 150.282 483.143 150.266 483.143 150.266C483.143 150.266 495.539 161.472 495.804 170.557Z" fill="#D0CDE1"/>
<path d="M483.625 181.79L487.855 175.496L483.633 182.467L483.642 183.175C483.333 183.178 483.027 183.172 482.725 183.16L482.934 174.056L482.929 173.986L482.936 173.973L482.956 173.112L478.324 166.383L482.951 172.468L482.967 172.65L483.126 165.772L479.125 158.796L483.137 164.564L483.095 150.315L483.096 150.267L483.097 150.314L483.362 161.544L487.009 156.982L483.374 162.512L483.454 168.664L486.81 162.66L483.466 169.568L483.511 172.989L488.391 164.625L483.525 174.183L483.625 181.79Z" fill="#3F3D56"/>
<path d="M679.99 170.557C680.256 179.643 674.949 182.972 668.29 183.167C668.136 183.171 667.982 183.174 667.828 183.175C667.519 183.178 667.214 183.172 666.911 183.16C660.888 182.91 656.121 179.711 655.874 171.261C655.619 162.517 666.468 151.155 667.282 150.314H667.283C667.314 150.282 667.33 150.266 667.33 150.266C667.33 150.266 679.725 161.472 679.99 170.557Z" fill="#D0CDE1"/>
<path d="M667.81 181.79L672.04 175.496L667.819 182.467L667.828 183.175C667.519 183.178 667.213 183.172 666.91 183.16L667.12 174.056L667.114 173.986L667.122 173.973L667.142 173.112L662.51 166.383L667.137 172.468L667.153 172.65L667.312 165.772L663.31 158.796L667.323 164.564L667.281 150.315V150.267L667.283 150.314L667.548 161.544L671.195 156.982L667.56 162.512L667.64 168.664L670.995 162.66L667.652 169.568L667.696 172.989L672.576 164.625L667.711 174.183L667.81 181.79Z" fill="#3F3D56"/>
<path d="M554.186 167.933C553.414 167.93 552.644 167.992 551.883 168.12C545.349 169.244 543.422 175.161 542.873 179.126C542.697 180.336 542.631 181.56 542.674 182.783L536.901 178.341L534.798 176.723C529.735 174.957 525.225 171.82 521.314 168.12C517.921 164.854 514.877 161.243 512.232 157.345C509.598 153.504 507.249 149.474 505.206 145.287C504.636 144.119 504.329 142.84 504.308 141.54C504.287 140.24 504.552 138.952 505.084 137.766L512.232 121.826L522.681 98.53C522.757 97.9755 522.842 97.4333 522.934 96.9034C525.006 85.0163 530.557 79.7383 530.557 79.7383H534.798L537.634 96.9034L541.159 118.229L538.689 126.288L532.982 144.901L538.436 150.827L554.186 167.933Z" fill="#D0CDE1"/>
<path d="M558.985 118.246L562.611 122.478C563.958 122.221 565.364 121.919 566.813 121.58L565.772 118.246L568.318 121.218C583.666 117.441 602.69 110.099 602.69 110.099C602.69 110.099 582.152 111.605 566.817 108.253C560.032 106.77 553.051 110.135 550.267 116.501C548.648 120.201 548.902 123.407 554.642 123.407C556.582 123.373 558.516 123.191 560.427 122.862L558.985 118.246Z" fill="#0057FF"/>
<path d="M631.414 115.104H584.105V114.128H562.653V115.104H515.149C514.3 115.104 513.486 115.441 512.886 116.041C512.286 116.642 511.949 117.456 511.949 118.305V183.118C511.949 183.968 512.286 184.782 512.886 185.382C513.486 185.983 514.3 186.32 515.149 186.32H631.414C632.263 186.32 633.077 185.983 633.677 185.382C634.277 184.782 634.614 183.968 634.614 183.118V118.305C634.614 117.885 634.532 117.468 634.371 117.08C634.21 116.692 633.974 116.339 633.677 116.041C633.38 115.744 633.027 115.508 632.639 115.347C632.251 115.186 631.834 115.104 631.414 115.104Z" fill="#3F3D56"/>
<path d="M573.375 144.841C577.299 144.841 580.481 141.658 580.481 137.732C580.481 133.805 577.299 130.622 573.375 130.622C569.45 130.622 566.269 133.805 566.269 137.732C566.269 141.658 569.45 144.841 573.375 144.841Z" stroke="#D0CDE1" stroke-width="2" stroke-miterlimit="10"/>
<path d="M571.101 147.401C575.026 147.401 578.207 144.218 578.207 140.292C578.207 136.365 575.026 133.182 571.101 133.182C567.177 133.182 563.995 136.365 563.995 140.292C563.995 144.218 567.177 147.401 571.101 147.401Z" fill="#D0CDE1"/>
<path d="M479.884 65.4399C492.339 65.4399 502.435 55.3382 502.435 42.8772C502.435 30.4161 492.339 20.3145 479.884 20.3145C467.429 20.3145 457.332 30.4161 457.332 42.8772C457.332 55.3382 467.429 65.4399 479.884 65.4399Z" fill="#0057FF"/>
<path d="M487.743 16.0645C485.701 15.8047 483.634 15.8047 481.592 16.0645C477.043 16.6621 472.761 18.5528 469.253 21.5122C465.746 24.4716 463.161 28.3756 461.805 32.7609C461.188 34.7594 460.839 36.8308 460.766 38.9212C460.756 39.2118 460.749 39.5058 460.749 39.7998C460.755 46.1445 463.277 52.2275 467.761 56.7139C472.246 61.2003 478.326 63.7236 484.667 63.7299C485.176 63.7299 485.686 63.7128 486.188 63.682C487.367 63.608 488.539 63.4458 489.694 63.1966C495.208 62.0101 500.127 58.912 503.58 54.4494C507.033 49.9868 508.799 44.4469 508.565 38.8082C508.332 33.1694 506.114 27.7945 502.304 23.6329C498.494 19.4713 493.337 16.7907 487.743 16.0645ZM492.154 61.8087H492.15C490.224 62.4663 488.219 62.8652 486.188 62.9949C485.686 63.0291 485.176 63.0462 484.667 63.0462C478.507 63.0386 472.602 60.587 468.246 56.2291C463.89 51.8712 461.44 45.9628 461.432 39.7998C461.432 39.5058 461.439 39.2118 461.449 38.9212C461.684 32.915 464.232 27.2325 468.56 23.0633C472.888 18.8941 478.659 16.5613 484.667 16.5533C490.172 16.5537 495.498 18.5092 499.696 22.0715C503.894 25.6338 506.692 30.5715 507.59 36.005C508.489 41.4385 507.431 47.0147 504.604 51.7403C501.777 56.4659 497.365 60.0339 492.154 61.8087Z" fill="#3F3D56"/>
<path d="M517.238 62.6885H453V63.3722H517.238V62.6885Z" fill="#3F3D56"/>
<path d="M485.008 56.8926H484.325V61.6786H485.008V56.8926Z" fill="#3F3D56"/>
<path d="M468.962 55.0302L469.445 55.5137L472.828 52.1294L472.345 51.646L468.962 55.0302Z" fill="#3F3D56"/>
<path d="M496.989 51.6454L496.506 52.1289L499.888 55.5131L500.372 55.0297L496.989 51.6454Z" fill="#3F3D56"/>
<path d="M501.751 39.4569V40.1406H506.535V39.4569H501.751Z" fill="#3F3D56"/>
<path d="M462.799 39.4569V40.1406H467.583V39.4569H462.799Z" fill="#3F3D56"/>
<path d="M485.692 38.4327C485.396 38.2108 485.036 38.0908 484.667 38.0908C484.297 38.0908 483.937 38.2108 483.642 38.4327C483.439 38.5865 483.272 38.7825 483.153 39.007C483.002 39.2961 482.936 39.6226 482.964 39.9477C482.992 40.2729 483.113 40.5832 483.312 40.842C483.511 41.1007 483.779 41.2972 484.086 41.408C484.393 41.5189 484.725 41.5395 485.043 41.4675C485.362 41.3956 485.653 41.234 485.882 41.0018C486.111 40.7697 486.269 40.4767 486.338 40.1575C486.406 39.8384 486.381 39.5063 486.267 39.2007C486.152 38.895 485.953 38.6285 485.692 38.4327ZM484.667 40.8257C484.395 40.8249 484.135 40.7166 483.943 40.5244C483.751 40.3323 483.643 40.0719 483.642 39.8001C483.643 39.5927 483.706 39.3904 483.823 39.219C483.923 39.0739 484.059 38.9571 484.217 38.8799C484.376 38.8028 484.551 38.7678 484.727 38.7784C484.903 38.789 485.073 38.8448 485.221 38.9405C485.369 39.0362 485.49 39.1684 485.572 39.3245C485.654 39.4805 485.694 39.6551 485.689 39.8313C485.684 40.0075 485.633 40.1794 485.542 40.3304C485.451 40.4813 485.323 40.6062 485.169 40.693C485.016 40.7798 484.843 40.8255 484.667 40.8257Z" fill="#3F3D56"/>
<path d="M485.692 26.8081H483.642V38.4313H485.692V26.8081Z" fill="#3F3D56"/>
<path d="M496.506 27.4716L496.989 27.9551L500.372 24.5708L499.889 24.0874L496.506 27.4716Z" fill="#3F3D56"/>
<path d="M469.445 24.0868L468.962 24.5703L472.344 27.9546L472.828 27.4711L469.445 24.0868Z" fill="#3F3D56"/>
<path d="M485.008 17.9209H484.325V22.7069H485.008V17.9209Z" fill="#3F3D56"/>
<path d="M487.742 10.0576H481.592V16.2111H487.742V10.0576Z" fill="#3F3D56"/>
<path d="M484.667 11.0836C489.196 11.0836 492.868 9.78261 492.868 8.17778C492.868 6.57295 489.196 5.27197 484.667 5.27197C480.138 5.27197 476.467 6.57295 476.467 8.17778C476.467 9.78261 480.138 11.0836 484.667 11.0836Z" fill="#3F3D56"/>
<path d="M559.517 13.891L555.609 12.3256C555.609 12.3256 563.781 3.3248 575.15 4.10751L571.952 0.585425C571.952 0.585425 579.768 -2.54525 586.874 5.67283C590.609 9.99289 594.931 15.0709 597.625 20.7912H601.811L600.064 24.6394L606.178 28.4875L599.903 27.7963C600.276 29.9036 600.334 32.055 600.073 34.1792C599.804 36.3041 598.72 38.2412 597.05 39.5818C597.05 39.5818 592.203 29.5445 592.203 27.9791V31.8925C592.203 31.8925 588.295 28.3705 588.295 26.0225L586.164 28.7618L585.098 24.4571L571.952 28.7618L574.084 25.2398L565.912 26.4138L569.11 22.109C569.11 22.109 559.873 27.1964 559.517 31.5012C559.162 35.8059 556.458 39.8849 556.458 39.8849C556.458 39.8849 549.214 19.761 559.517 13.891Z" fill="#2F2E41"/>
</g>
<defs>
<clipPath id="clip0_1_45">
<rect width="721" height="170" fill="white" transform="translate(0 26)"/>
</clipPath>
<clipPath id="clip1_1_45">
<rect width="227" height="196" fill="white" transform="translate(453)"/>
</clipPath>
</defs>
</svg>
