<svg width="20" height="20" viewBox="0 0 20 20" fill="none" xmlns="http://www.w3.org/2000/svg">
<path d="M6.66659 10.0002V15.0002C6.66659 15.4604 7.03968 15.8335 7.49992 15.8335C7.96016 15.8335 8.33325 15.4604 8.33325 15.0002V10.0002C8.33325 9.53993 7.96016 9.16683 7.49992 9.16683C7.03968 9.16683 6.66659 9.53993 6.66659 10.0002Z" fill="#31394E" fill-opacity="0.4"/>
<path d="M3.33325 10.0002V16.6668C3.33325 17.1271 3.70635 17.5002 4.16659 17.5002C4.62682 17.5002 4.99992 17.1271 4.99992 16.6668V10.0002C4.99992 9.53993 4.62682 9.16683 4.16659 9.16683C3.70635 9.16683 3.33325 9.53993 3.33325 10.0002Z" fill="#31394E" fill-opacity="0.4"/>
<path d="M9.99992 10.0002V13.3335C9.99992 13.7937 10.373 14.1668 10.8333 14.1668C11.2935 14.1668 11.6666 13.7937 11.6666 13.3335V10.0002C11.6666 9.53993 11.2935 9.16683 10.8333 9.16683C10.373 9.16683 9.99992 9.53993 9.99992 10.0002Z" fill="#31394E" fill-opacity="0.4"/>
<path d="M15.4881 6.66683L13.5773 8.57757C13.2519 8.90301 13.2519 9.43065 13.5773 9.75609C13.9028 10.0815 14.4304 10.0815 14.7558 9.75609L17.2558 7.25609C17.5813 6.93065 17.5813 6.40301 17.2558 6.07757L14.7558 3.57757C14.4304 3.25214 13.9028 3.25214 13.5773 3.57757C13.2519 3.90301 13.2519 4.43065 13.5773 4.75609L15.4881 6.66683Z" fill="#31394E" fill-opacity="0.4"/>
<path d="M4.16659 7.50016H15.8333C16.2935 7.50016 16.6666 7.12707 16.6666 6.66683C16.6666 6.20659 16.2935 5.8335 15.8333 5.8335H4.16659C3.70635 5.8335 3.33325 6.20659 3.33325 6.66683C3.33325 7.12707 3.70635 7.50016 4.16659 7.50016Z" fill="#31394E" fill-opacity="0.4"/>
</svg>
