<svg width="20" height="20" viewBox="0 0 20 20" fill="none" xmlns="http://www.w3.org/2000/svg">
<path d="M10.0001 3.67835L14.4108 8.08909C14.7363 8.41453 15.2639 8.41453 15.5893 8.08909C15.9148 7.76366 15.9148 7.23602 15.5893 6.91058L10.5893 1.91058C10.2639 1.58514 9.73626 1.58514 9.41083 1.91058L4.41083 6.91058C4.08539 7.23602 4.08539 7.76366 4.41083 8.08909C4.73626 8.41453 5.2639 8.41453 5.58934 8.08909L10.0001 3.67835Z" fill="#31394E" fill-opacity="0.4"/>
<path d="M10.8334 17.4998V3.33317C10.8334 2.87293 10.4603 2.49984 10.0001 2.49984C9.53984 2.49984 9.16675 2.87293 9.16675 3.33317V17.4998C9.16675 17.9601 9.53984 18.3332 10.0001 18.3332C10.4603 18.3332 10.8334 17.9601 10.8334 17.4998Z" fill="#31394E" fill-opacity="0.4"/>
<path d="M9.16675 2.49984V3.33317C9.16675 3.79341 9.53984 4.1665 10.0001 4.1665C10.4603 4.1665 10.8334 3.79341 10.8334 3.33317V2.49984C10.8334 2.0396 10.4603 1.6665 10.0001 1.6665C9.53984 1.6665 9.16675 2.0396 9.16675 2.49984Z" fill="#31394E" fill-opacity="0.4"/>
</svg>
