<svg width="25" height="24" viewBox="0 0 25 24" fill="none" xmlns="http://www.w3.org/2000/svg">
<path d="M12.283 10.5859L17.2328 5.63615C17.6233 5.24563 18.2565 5.24563 18.647 5.63615C19.0375 6.02668 19.0375 6.65984 18.647 7.05037L13.6972 12.0001L18.647 16.9499C19.0375 17.3404 19.0375 17.9736 18.647 18.3641C18.2565 18.7546 17.6233 18.7546 17.2328 18.3641L12.283 13.4143L7.33327 18.3641C6.94274 18.7546 6.30958 18.7546 5.91905 18.3641C5.52853 17.9736 5.52853 17.3404 5.91905 16.9499L10.8688 12.0001L5.91905 7.05037C5.52853 6.65984 5.52853 6.02668 5.91905 5.63615C6.30958 5.24563 6.94274 5.24563 7.33327 5.63615L12.283 10.5859Z" fill="#4C84FF"/>
</svg>
